<?xml version="1.0" standalone="no"?>
<!DOCTYPE svg PUBLIC "-//W3C//DTD SVG 20010904//EN"
 "http://www.w3.org/TR/2001/REC-SVG-20010904/DTD/svg10.dtd">
<svg version="1.0" xmlns="http://www.w3.org/2000/svg"
 width="512.000000pt" height="512.000000pt" viewBox="0 0 512.000000 512.000000"
 preserveAspectRatio="xMidYMid meet">

<g transform="translate(0.000000,512.000000) scale(0.100000,-0.100000)"
fill="#000000" stroke="none">
<path d="M1675 5113 c-62 -17 -60 -56 9 -141 168 -211 203 -409 90 -514 -16
-14 -76 -52 -133 -83 -195 -106 -338 -214 -487 -366 -157 -163 -256 -303 -355
-504 -264 -539 -261 -1178 6 -1716 168 -338 422 -618 735 -812 82 -50 281
-147 345 -167 159 -50 254 -147 300 -305 63 -219 231 -395 450 -471 72 -26 93
-28 216 -29 121 0 139 2 158 19 31 28 26 49 -25 118 -81 109 -144 278 -144
386 0 40 -47 129 -81 154 -39 29 -36 44 9 58 60 20 99 56 143 133 76 132 168
228 276 289 29 17 58 39 64 50 23 43 -45 96 -186 144 -69 23 -97 27 -200 28
-143 1 -211 -15 -335 -76 -72 -36 -101 -59 -192 -150 -101 -103 -108 -108
-148 -108 -23 0 -51 5 -63 12 -100 52 -243 229 -355 438 l-51 96 -162 94
c-187 108 -254 167 -311 276 -49 93 -68 176 -68 300 0 185 47 311 160 425 102
103 213 151 380 165 85 6 95 9 154 49 107 71 206 107 315 113 112 6 222 -11
247 -39 26 -29 22 -78 -8 -103 -14 -12 -91 -67 -172 -124 -162 -114 -186 -141
-186 -215 0 -57 10 -79 59 -130 64 -68 74 -70 292 -75 172 -4 205 -2 276 16
152 39 301 131 394 246 100 123 112 192 49 279 -18 26 -30 52 -27 61 19 50
152 71 267 42 88 -22 227 -91 335 -168 114 -80 373 -339 525 -525 126 -154
146 -167 213 -139 77 32 86 94 29 212 l-37 79 4 125 c11 299 5 490 -18 600
-46 218 -124 403 -246 585 -324 485 -864 799 -1467 854 -131 11 -178 33 -226
106 -66 99 -122 165 -189 220 -78 65 -236 145 -333 170 -66 16 -259 29 -295
18z m1688 -1278 c190 -49 508 -296 585 -454 51 -102 38 -187 -34 -232 -101
-62 -253 7 -435 198 -211 221 -313 454 -217 493 32 12 36 12 101 -5z"/>
<path d="M3234 2538 c3 -18 10 -132 17 -253 12 -244 19 -273 78 -312 62 -41
194 -23 242 33 26 30 169 243 169 252 0 4 -27 22 -61 39 -33 18 -144 87 -248
153 -104 66 -191 120 -195 120 -4 0 -5 -15 -2 -32z"/>
</g>
</svg>
